<svg xmlns="http://www.w3.org/2000/svg" width="1200" height="780" viewBox="0 0 1200 780" role="img" aria-labelledby="title desc">
  <title id="title">Workflow Template</title>
  <desc id="desc">Konfigurasi step approval, approver strategy, SLA, dan versioning.</desc>
  <defs>
    <linearGradient id="bg" x1="0" x2="1" y1="0" y2="1">
      <stop offset="0%" stop-color="#fff7ed"/>
      <stop offset="47%" stop-color="#f8fafc"/>
      <stop offset="100%" stop-color="#ecfeff"/>
    </linearGradient>
    <filter id="shadow" x="-10%" y="-10%" width="120%" height="120%">
      <feDropShadow dx="0" dy="20" stdDeviation="18" flood-color="#0f172a" flood-opacity="0.14"/>
    </filter>
    <style>
      .panel { fill: rgba(255,255,255,0.88); stroke: rgba(15,23,42,0.10); }
      .eyebrow { fill: #64748b; font: 700 20px Georgia, serif; letter-spacing: 0.18em; text-transform: uppercase; }
      .title { fill: #0f172a; font: 800 58px Georgia, serif; }
      .subtitle { fill: #475569; font: 400 24px "Trebuchet MS", sans-serif; }
      .section { fill: #0f172a; font: 800 28px Georgia, serif; }
      .stat { fill: rgba(255,255,255,0.78); stroke: rgba(15,23,42,0.10); }
      .stat-label { fill: #64748b; font: 700 14px "Trebuchet MS", sans-serif; letter-spacing: 0.12em; text-transform: uppercase; }
      .stat-value { fill: #0f172a; font: 800 22px "Trebuchet MS", sans-serif; }
      .flow-no { fill: #ffffff; font: 800 26px "Trebuchet MS", sans-serif; }
      .flow-text { fill: #0f172a; font: 700 20px "Trebuchet MS", sans-serif; }
      .flow-line { stroke: #cbd5e1; stroke-width: 6; stroke-linecap: round; }
      .note { fill: #334155; font: 500 22px "Trebuchet MS", sans-serif; }
      .watermark { fill: #0f172a; font: 700 14px "Trebuchet MS", sans-serif; letter-spacing: 0.14em; opacity: 0.38; }
    </style>
  </defs>
  <rect width="1200" height="780" fill="url(#bg)"/>
  <circle cx="1030" cy="90" r="190" fill="#6d28d9" opacity="0.10"/>
  <circle cx="130" cy="730" r="220" fill="#6d28d9" opacity="0.08"/>
  <rect x="36" y="34" width="1128" height="712" rx="42" class="panel" filter="url(#shadow)"/>
  <g transform="translate(832 72) scale(1.04)"><circle cx="94" cy="112" r="28" fill="#6d28d9" opacity="0.14"/><circle cx="218" cy="112" r="28" fill="#6d28d9" opacity="0.14"/><circle cx="156" cy="214" r="28" fill="#6d28d9" opacity="0.14"/><path d="M122 112h68M204 138l-34 52M108 138l34 52" fill="none" stroke="#6d28d9" stroke-width="8" stroke-linecap="round"/></g>
  <text x="72" y="100" class="eyebrow">Workflow</text>
  <text x="72" y="154" class="title">Workflow Template</text>
  <text x="72" y="184" class="subtitle">Konfigurasi step approval, approver strategy, SLA, dan versioning.</text>
  <rect x="72" y="278" width="204" height="94" rx="24" class="stat"/><circle cx="110" cy="324" r="14" fill="#6d28d9" opacity="0.18"/><text x="136" y="316" class="stat-label">Area</text><text x="136" y="346" class="stat-value">Version</text><rect x="312" y="278" width="204" height="94" rx="24" class="stat"/><circle cx="350" cy="324" r="14" fill="#6d28d9" opacity="0.18"/><text x="376" y="316" class="stat-label">Area</text><text x="376" y="346" class="stat-value">Step</text><rect x="552" y="278" width="204" height="94" rx="24" class="stat"/><circle cx="590" cy="324" r="14" fill="#6d28d9" opacity="0.18"/><text x="616" y="316" class="stat-label">Area</text><text x="616" y="346" class="stat-value">Approver</text><rect x="792" y="278" width="204" height="94" rx="24" class="stat"/><circle cx="830" cy="324" r="14" fill="#6d28d9" opacity="0.18"/><text x="856" y="316" class="stat-label">Area</text><text x="856" y="346" class="stat-value">SLA</text>
  <text x="72" y="450" class="section">Alur Utama</text>
  <circle cx="78" cy="508" r="30" fill="#6d28d9"/><text x="78" y="518" text-anchor="middle" class="flow-no">1</text><text x="124" y="500" class="flow-text">Buat template</text><path d="M226 508h62" class="flow-line"/><circle cx="316" cy="508" r="30" fill="#6d28d9"/><text x="316" y="518" text-anchor="middle" class="flow-no">2</text><text x="362" y="500" class="flow-text">Atur step serial/quorum</text><path d="M464 508h62" class="flow-line"/><circle cx="554" cy="508" r="30" fill="#6d28d9"/><text x="554" y="518" text-anchor="middle" class="flow-no">3</text><text x="600" y="500" class="flow-text">Aktifkan versi</text><path d="M702 508h62" class="flow-line"/><circle cx="792" cy="508" r="30" fill="#6d28d9"/><text x="792" y="518" text-anchor="middle" class="flow-no">4</text><text x="838" y="500" class="flow-text">Snapshot saat submit</text>
  <text x="72" y="604" class="section">Catatan Desain</text>
  <circle cx="96" cy="648" r="7" fill="#6d28d9"/><text x="118" y="655" class="note">Perubahan template tidak mengubah instance berjalan</text><circle cx="96" cy="690" r="7" fill="#6d28d9"/><text x="118" y="697" class="note">Template ambigu harus ditolak</text><circle cx="96" cy="732" r="7" fill="#6d28d9"/><text x="118" y="739" class="note">Default legacy: BAT lalu Manager</text>
  <text x="72" y="718" class="watermark">E-SPPB ENTERPRISE • REFERENSI MENU/MODUL • 2026-07-14</text>
</svg>